<?xml version="1.0" encoding="UTF-8"?>
<svg version="1.1" xmlns="http://www.w3.org/2000/svg" width="720" height="405">
<path d="M0 0 C237.6 0 475.2 0 720 0 C720 133.65 720 267.3 720 405 C482.4 405 244.8 405 0 405 C0 271.35 0 137.7 0 0 Z " fill="#FEFEFE" transform="translate(0,0)"/>
<path d="M0 0 C39.76606684 0 39.76606684 0 52.70703125 11.51953125 C59.6775784 18.77242968 62.46530338 27.75598018 62.5 37.625 C62.25363409 49.28375365 59.17193894 58.28386859 51.18359375 66.9765625 C36.89084735 80.54745302 19.09490727 77 0 77 C0 51.59 0 26.18 0 0 Z " fill="#FCFCFC" transform="translate(463,164)"/>
<path d="M0 0 C13.5415064 5.33453283 26.07648895 13.69292978 38.59570312 21.015625 C41.98822968 22.99313904 45.39085941 24.95207564 48.796875 26.90625 C50.94797992 28.14572356 53.09902401 29.3853027 55.25 30.625 C56.73983398 31.47602295 56.73983398 31.47602295 58.25976562 32.34423828 C72.35589477 40.50836852 72.35589477 40.50836852 75 48 C75.71408498 54.32475271 74.61711851 58.73235168 71 64 C66.07363737 68.6800445 61.65851742 70.66448322 54.89941406 70.50878906 C48.92685006 69.46072377 43.97672264 65.99868801 38.875 62.875 C37.64487424 62.14366529 36.41348814 61.41444672 35.1809082 60.68725586 C32.66662264 59.20011765 30.15953081 57.70186493 27.65771484 56.19384766 C23.21067878 53.51788618 18.71890441 50.92065927 14.22607422 48.32250977 C10.34004775 46.07163681 6.46859963 43.796361 2.59716797 41.52050781 C0.176798 40.10350611 -2.25178706 38.7019397 -4.68359375 37.3046875 C-6.03926882 36.51597953 -7.39475426 35.72694546 -8.75 34.9375 C-9.87921875 34.28652344 -11.0084375 33.63554687 -12.171875 32.96484375 C-17.02423979 29.59365661 -19.77613482 25.7855445 -21 20 C-21.18880688 14.2623686 -20.09127811 9.97916548 -16.44140625 5.5078125 C-11.60861687 0.45237429 -6.90007108 -1.53661157 0 0 Z " fill="#4385F3" transform="translate(130,185)"/>
<path d="M0 0 C2.75435701 1.44132107 5.3970553 2.99744578 8.04516602 4.62573242 C9.52581543 5.4994751 9.52581543 5.4994751 11.03637695 6.39086914 C13.11969838 7.62186294 15.19775935 8.86179834 17.27075195 10.11010742 C21.36937579 12.57055261 25.503205 14.96783093 29.63891602 17.36523438 C32.64752269 19.11258157 35.64745433 20.87414433 38.64672852 22.63745117 C42.38883121 24.83068691 46.15100379 26.97810914 49.94360352 29.08276367 C50.80695313 29.56664551 51.67030273 30.05052734 52.55981445 30.54907227 C54.15313856 31.4396434 55.75231692 32.31986705 57.35864258 33.18676758 C62.93040038 36.31978083 67.515493 40.19138639 70.42016602 46.00073242 C70.93064852 51.12229457 71.06278146 55.58162331 68.92016602 60.31323242 C60.75320647 69.09271393 60.75320647 69.09271393 53.71704102 69.45385742 C47.99164409 69.2846908 44.12029581 67.29670563 39.29516602 64.37573242 C38.44535156 63.88500244 37.59553711 63.39427246 36.7199707 62.88867188 C34.89209818 61.82935921 33.06995985 60.76010081 31.25317383 59.68188477 C28.39033941 57.98303284 25.51323094 56.31114683 22.63110352 54.64526367 C18.623774 52.32585592 14.62793281 49.98820209 10.63891602 47.63745117 C6.35079342 45.11578927 2.03701771 42.64685289 -2.29858398 40.20776367 C-3.93875488 39.27637573 -3.93875488 39.27637573 -5.61206055 38.32617188 C-7.70673567 37.1378649 -9.80740195 35.96003738 -11.91479492 34.79443359 C-18.45148107 31.0626023 -22.14547901 28.30379734 -24.57983398 21.00073242 C-25.1704341 15.70220571 -25.55399743 10.65307454 -22.51733398 6.06323242 C-16.59794201 -0.81516719 -8.71927843 -3.37730734 0 0 Z " fill="#119D59" transform="translate(255.579833984375,150.999267578125)"/>
<path d="M0 0 C4.41397376 2.45027677 7.63654551 5.57080084 9.625 10.3125 C9.686875 10.993125 9.74875 11.67375 9.8125 12.375 C9.915625 13.4475 10.01875 14.52 10.125 15.625 C9.6599362 21.20576562 7.90075585 25.58555972 3.59790039 29.27270508 C0.7846355 31.39603087 -2.05799354 33.15813917 -5.1171875 34.90625 C-6.80521484 35.87498047 -6.80521484 35.87498047 -8.52734375 36.86328125 C-9.7056733 37.53395233 -10.88405912 38.20452455 -12.0625 38.875 C-13.23329561 39.54518403 -14.40387044 40.21575391 -15.57421875 40.88671875 C-17.80370748 42.16326029 -20.03632358 43.43435987 -22.27246094 44.69921875 C-23.99749287 45.6908954 -25.71012911 46.70566654 -27.39160156 47.76953125 C-31.61430443 50.43072569 -31.61430443 50.43072569 -34.54052734 50.14624023 C-37.51232226 49.28035754 -39.85578083 48.05991532 -42.53125 46.50390625 C-43.53027344 45.92962891 -44.52929688 45.35535156 -45.55859375 44.76367188 C-46.59113281 44.16103516 -47.62367188 43.55839844 -48.6875 42.9375 C-50.73793387 41.74845314 -52.78996325 40.56215242 -54.84375 39.37890625 C-55.74931641 38.85111572 -56.65488281 38.3233252 -57.58789062 37.77954102 C-62.44701934 35.15420598 -66.69252992 34.02146707 -72.1875 33.375 C-68.18099718 29.93640923 -63.9947036 27.48484057 -59.375 25 C-51.74118161 20.82765715 -44.19785377 16.51559671 -36.6875 12.125 C-35.6977417 11.5470166 -34.7079834 10.9690332 -33.68823242 10.37353516 C-28.18095372 7.1497397 -22.70322011 3.88484789 -17.26367188 0.54785156 C-11.64677336 -2.62519412 -5.76852049 -2.63298 0 0 Z " fill="#E94437" transform="translate(195.1875,151.625)"/>
<path d="M0 0 C1.90405924 0.96260295 3.77094262 2.00055045 5.60546875 3.08984375 C6.67216797 3.70923828 7.73886719 4.32863281 8.83789062 4.96679688 C11.0547544 6.2710625 13.2683596 7.58088408 15.47851562 8.89648438 C21.92676652 12.62601327 27.55362356 15.18890489 35 16 C31.71902718 18.72535098 28.44143068 21.03219711 24.73828125 23.14453125 C23.71347656 23.73218262 22.68867188 24.31983398 21.6328125 24.92529297 C20.53710938 25.54807129 19.44140625 26.17084961 18.3125 26.8125 C16.58099974 27.80358199 14.84950373 28.79467148 13.11825562 29.78619385 C11.31080513 30.82074317 9.50234793 31.85351761 7.69384766 32.88623047 C3.98104932 35.00840973 0.27659836 37.14486341 -3.42578125 39.28515625 C-4.32172249 39.80300438 -4.32172249 39.80300438 -5.23576355 40.33131409 C-6.99058248 41.34574909 -8.74530378 42.36035276 -10.5 43.375 C-12.67670432 44.63346829 -14.8537559 45.89133625 -17.03125 47.1484375 C-17.94455078 47.67614746 -18.85785156 48.20385742 -19.79882812 48.74755859 C-24.57122546 51.46299763 -28.54165417 51.82419467 -34 51 C-39.45693152 48.51350827 -43.37620001 45.46227452 -46 40 C-46.57421875 36.984375 -46.57421875 36.984375 -46.6875 33.75 C-46.78611328 32.16445312 -46.78611328 32.16445312 -46.88671875 30.546875 C-45.24344291 23.97377163 -40.63069261 19.78435419 -35.12768555 16.05175781 C-31.96007343 14.19259952 -28.75444087 12.45232291 -25.5 10.75 C-23.32200887 9.57981305 -21.14490521 8.40797261 -18.96875 7.234375 C-17.94136719 6.68974609 -16.91398437 6.14511719 -15.85546875 5.58398438 C-12.69164029 3.82894684 -9.72598454 1.88237999 -6.79882812 -0.24121094 C-4.17069836 -1.34981942 -2.69997011 -0.84099895 0 0 Z " fill="#FABC06" transform="translate(277,204)"/>
<path d="M0 0 C2.84747523 1.81848107 5.46738194 3.76533701 8 6 C6.64062915 8.8605891 5.35479531 10.85927699 3 13 C-1.31134737 11.43223732 -5.05250912 9.30890976 -9 7 C-12.31973998 5.34013001 -15.9788798 5.73125344 -19.625 5.6875 C-20.40746094 5.65849609 -21.18992187 5.62949219 -21.99609375 5.59960938 C-29.48667522 5.51886513 -35.95072168 8.204159 -41.546875 13.29296875 C-48.1732526 21.07718115 -50.04574199 29.30588004 -49.453125 39.22265625 C-48.45177295 47.5701341 -45.30013108 54.34796853 -39 60 C-31.04756628 65.84522202 -22.39521829 66.83821487 -12.86328125 65.7578125 C-6.08612202 64.45297634 -1.22942052 60.40542741 3.375 55.4375 C6.38680114 50.91979829 7.09052679 47.45683923 8 42 C-1.24 42 -10.48 42 -20 42 C-20 39.03 -20 36.06 -20 33 C-14.74894558 32.97535072 -9.49792455 32.95716432 -4.24682617 32.94506836 C-2.45905979 32.94002782 -0.67129755 32.93319546 1.11645508 32.92456055 C3.68051168 32.9124827 6.24451397 32.90676906 8.80859375 32.90234375 C9.6127623 32.89718246 10.41693085 32.89202118 11.24546814 32.88670349 C13.16401715 32.88650785 15.08245368 32.93798017 17 33 C18 34 18 34 18.3125 37.6875 C18.15916434 47.30164557 15.33478947 56.80129971 8.984375 64.1015625 C0.33310976 72.37816664 -10.41919241 76.49077964 -22.38671875 76.26953125 C-33.51117404 75.12216591 -43.52564264 70.3297257 -50.875 61.83203125 C-52.44042307 59.62087117 -53.73900168 57.39630228 -55 55 C-55.41121094 54.31035156 -55.82242188 53.62070313 -56.24609375 52.91015625 C-59.1965116 47.10120207 -59.41214194 41.33180986 -59.5 34.9375 C-59.51853027 34.09856201 -59.53706055 33.25962402 -59.55615234 32.39526367 C-59.45514379 22.28351536 -54.73800292 14.03734792 -48.125 6.5625 C-34.94992552 -5.91621748 -16.19098024 -8.12009647 0 0 Z " fill="#6C7076" transform="translate(592,167)"/>
<path d="M0 0 C9.83518312 5.11023948 9.83518312 5.11023948 11.89453125 9.984375 C10.24453125 11.634375 8.59453125 13.284375 6.89453125 14.984375 C3.71036179 13.45597366 0.69864745 11.70730862 -2.32421875 9.88671875 C-9.25772419 6.37435086 -19.75338057 6.7826371 -27.1328125 8.8203125 C-35.07755327 12.46828284 -40.86325609 18.87884334 -44.10546875 26.984375 C-46.49743344 37.10811287 -45.33399671 46.10384192 -40.35546875 55.171875 C-34.8482605 62.05588531 -28.17600114 67.17054166 -19.25 68.3671875 C-10.75065499 68.69704565 -2.551806 66.88219793 4.33203125 61.671875 C9.55243937 56.19681283 10.99854094 51.56833625 12.89453125 43.984375 C3.65453125 43.984375 -5.58546875 43.984375 -15.10546875 43.984375 C-15.10546875 41.014375 -15.10546875 38.044375 -15.10546875 34.984375 C-2.89546875 34.984375 9.31453125 34.984375 21.89453125 34.984375 C21.89453125 47.8921507 21.13521285 57.64484215 12.26953125 67.171875 C2.60659044 76.36433554 -8.14085817 77.70608152 -20.890625 77.45703125 C-30.33187867 76.90913969 -39.26698288 72.21868739 -45.578125 65.13671875 C-53.88491975 53.4307241 -56.15470855 43.20083542 -55.10546875 28.984375 C-52.77133324 19.14099213 -46.5128575 9.64951 -38.10546875 3.984375 C-26.8215343 -2.36283813 -12.46320871 -5.21144033 0 0 Z " fill="#6B7076" transform="translate(430.10546875,165.015625)"/>
<path d="M0 0 C39.76606684 0 39.76606684 0 52.70703125 11.51953125 C59.6775784 18.77242968 62.46530338 27.75598018 62.5 37.625 C62.25363409 49.28375365 59.17193894 58.28386859 51.18359375 66.9765625 C36.89084735 80.54745302 19.09490727 77 0 77 C0 51.59 0 26.18 0 0 Z M9 9 C9 28.47 9 47.94 9 68 C28.20524937 68.85759972 28.20524937 68.85759972 44.4375 61.75 C51.57184899 54.09362547 53.50845582 44.52514843 53.30859375 34.28515625 C52.58919525 26.62674939 49.67595203 20.66302087 44.00390625 15.46875 C33.01676715 7.41579814 23.05978614 9 9 9 Z " fill="#6B7076" transform="translate(463,164)"/>
</svg>
